<?xml version="1.0" encoding="UTF-8"?>
<svg xmlns="http://www.w3.org/2000/svg" width="100pt" height="100pt" version="1.1" viewBox="0 0 100 100">
  <path d="m5 0h90c2.7617 0 5 2.7617 5 5v90c0 2.7617-2.2383 5-5 5h-90c-2.7617 0-5-2.7617-5-5v-90c0-2.7617 2.2383-5 5-5z" fill="#233642"></path>
  <path d="m77.559 52.629h-19.734c-0.57031 0-1.0703 0.38281-1.2266 0.93359-0.5 1.75-0.76953 3.1875-0.91406 4.4805 0.76953 0.10156 1.2383 0.43359 1.625 0.71484 0.41016 0.29688 0.69922 0.50781 1.3672 0.50781 0.66406 0 0.95703-0.21484 1.3672-0.50781 0.46094-0.33594 1.0312-0.75 2.1055-0.75 1.0742 0 1.6445 0.41406 2.1055 0.75 0.41016 0.29688 0.70312 0.50781 1.3672 0.50781 0.66406 0 0.95703-0.21484 1.3672-0.50781 0.46094-0.33594 1.0312-0.75 2.1055-0.75s1.6445 0.41406 2.1055 0.75c0.41016 0.29688 0.70312 0.50781 1.3672 0.50781 0.66406 0 0.96094-0.21484 1.3672-0.50781 0.46094-0.33594 1.0352-0.75 2.1094-0.75s1.6445 0.41406 2.1094 0.75c0.23438 0.16797 0.4375 0.30469 0.6875 0.39453v-5.2539c-0.003906-0.70313-0.57422-1.2734-1.2773-1.2734z" fill="#fff2f2"></path>
  <path d="m23.961 59.266c0.66406 0 0.95703-0.21484 1.3672-0.50781 0.46094-0.33594 1.0312-0.75 2.1055-0.75 1.0742 0 1.6445 0.41406 2.1055 0.75 0.41016 0.29688 0.69922 0.50781 1.3672 0.50781 0.66406 0 0.95703-0.21484 1.3672-0.50781 0.46094-0.33594 1.0312-0.75 2.1055-0.75 1.0742 0 1.6445 0.41406 2.1055 0.75 0.41016 0.29688 0.69922 0.50781 1.3672 0.50781 0.66406 0 0.95703-0.21484 1.3672-0.50781 0.46094-0.33594 1.0312-0.75 2.1055-0.75 0.23047 0 0.43359 0.023438 0.625 0.054688 0.41016-1.0195 0.94922-2.1992 1.6719-3.5586 0.44922-0.84766-0.16016-1.875-1.1211-1.875l-20.051-0.003906c-0.70312 0-1.2734 0.57031-1.2734 1.2734v4.168c0.65625 0.12891 1.0742 0.42969 1.4258 0.6875 0.40625 0.29688 0.69922 0.51172 1.3633 0.51172z" fill="#fff2f2"></path>
  <path d="m76.031 59.266c-0.66406 0-0.96094 0.21484-1.3672 0.50781-0.46094 0.33594-1.0352 0.75-2.1094 0.75-1.0742 0-1.6445-0.41406-2.1055-0.75-0.41016-0.29688-0.70312-0.50781-1.3672-0.50781-0.66406 0-0.95703 0.21484-1.3672 0.50781-0.46094 0.33594-1.0312 0.75-2.1055 0.75s-1.6445-0.41406-2.1055-0.75c-0.41016-0.29688-0.70312-0.50781-1.3672-0.50781-0.66406 0-0.95703 0.21484-1.3672 0.50781-0.46094 0.33594-1.0312 0.75-2.1055 0.75-1.0742 0-1.6445-0.41406-2.1055-0.75-0.32031-0.23438-0.57812-0.41016-0.99219-0.47656-0.066406 1.0938-0.058594 2.1172-0.050781 3.1875 0.003906 0.42969 0.007813 0.85938 0.007813 1.3047-0.011719 4.0547-3.2383 7.2266-7.3516 7.2266-0.34766 0-0.70312-0.023437-1.0586-0.070313-4.6758-0.59375-6.4219-4.8555-6.4219-7.3984 0-0.64844 0.003906-1.9492 0.79297-4.2695-0.058594-0.003906-0.10938-0.015625-0.17578-0.015625-0.66406 0-0.95703 0.21484-1.3672 0.50781-0.46094 0.33594-1.0312 0.75-2.1055 0.75-1.0742 0-1.6445-0.41406-2.1055-0.75-0.40625-0.29688-0.69922-0.50781-1.3672-0.50781-0.66406 0-0.95703 0.21484-1.3672 0.50781-0.46094 0.33594-1.0312 0.75-2.1055 0.75s-1.6445-0.41406-2.1055-0.75c-0.41016-0.29688-0.69922-0.50781-1.3672-0.50781-0.66406 0-0.95703 0.21484-1.3672 0.50781-0.46094 0.33594-1.0312 0.75-2.1055 0.75-1.0742 0-1.6445-0.41406-2.1055-0.75-0.23438-0.16797-0.43359-0.30469-0.6875-0.39453v17.879c0 0.70312 0.57031 1.2734 1.2734 1.2734h55.113c0.70313 0 1.2734-0.57031 1.2734-1.2734l0.007812-16.797c-0.65625-0.12891-1.0742-0.42969-1.4258-0.6875-0.41016-0.29688-0.69922-0.50781-1.3672-0.50781zm-49.09 16.84c-1.1367 0-2.0547-0.92188-2.0547-2.0547 0-1.1367 0.92188-2.0547 2.0547-2.0547 1.1367 0 2.0547 0.92188 2.0547 2.0547 0 1.1367-0.92188 2.0547-2.0547 2.0547zm5.9883-6.4336c-1.1328 0-2.0547-0.92188-2.0547-2.0547 0-1.1367 0.92188-2.0547 2.0547-2.0547 1.1367 0 2.0547 0.92188 2.0547 2.0547 0 1.1367-0.92188 2.0547-2.0547 2.0547zm5.9883 6.4336c-1.1328 0-2.0547-0.92188-2.0547-2.0547 0-1.1367 0.92188-2.0547 2.0547-2.0547 1.1367 0 2.0547 0.92188 2.0547 2.0547 0 1.1367-0.92188 2.0547-2.0547 2.0547zm22.164-6.4336c-1.1328 0-2.0547-0.92188-2.0547-2.0547 0-1.1367 0.92188-2.0547 2.0547-2.0547 1.1367 0 2.0547 0.92188 2.0547 2.0547-0.003907 1.1367-0.92188 2.0547-2.0547 2.0547zm5.9883 6.4336c-1.1367 0-2.0547-0.92188-2.0547-2.0547 0-1.1367 0.92188-2.0547 2.0547-2.0547 1.1367 0 2.0547 0.92188 2.0547 2.0547-0.003906 1.1367-0.92188 2.0547-2.0547 2.0547zm5.9883-6.4336c-1.1367 0-2.0547-0.92188-2.0547-2.0547 0-1.1367 0.92188-2.0547 2.0547-2.0547 1.1367 0 2.0547 0.92188 2.0547 2.0547-0.003906 1.1367-0.92188 2.0547-2.0547 2.0547z" fill="#fff2f2"></path>
  <path d="m43.199 60.121c-0.52734 1.6445-0.61328 2.7266-0.61328 3.4297 0 1.6875 1.1055 5.0586 4.7656 5.5234 3.6641 0.46484 6.2734-2.2227 6.2812-5.293 0.003907-1.3164-0.035156-2.5469 0.015626-3.875 0.015624-0.50391 0.050781-1.0273 0.10156-1.5703 0.20703-2.2188 0.74219-4.8438 2.0938-8.5664 2.5586-7.0352 8.2227-11.379 8.6641-11.746 0.38672-0.32422 0.45703-0.42969 0.38672-0.61719-0.066406-0.16797-0.30078-0.14453-0.61719-0.023438 0 0-9.3633 3.1406-15.293 11.922-2.8906 4.2773-4.4766 7.3594-5.3477 9.6016-0.16797 0.43359-0.3125 0.83594-0.43359 1.2109z" fill="#fff2f2"></path>
  <path d="m22.867 26.359c0.26953 0.41406 0.72266 0.64062 1.1836 0.64062 0.26172 0 0.52344-0.070312 0.75781-0.22266l0.79297-0.51172 0.54297 0.84375-2.2734 1.4648c-1.1406 0.73438-1.4648 2.2578-0.73438 3.3984 0.35547 0.55078 0.90625 0.93359 1.5469 1.0703 0.17578 0.035156 0.34766 0.054687 0.52344 0.054687 0.46875 0 0.92578-0.13672 1.3242-0.39453l0.054688-0.035156c0.039062 0.074219 0.070312 0.15234 0.11719 0.22266l7.8828 12.219c0.86719 1.3398 2.3242 2.0703 3.8125 2.0703 0.20312 0 0.41016-0.015626 0.61328-0.042969l0.375 0.58594c0.24609 0.38281 0.625 0.64062 1.0664 0.73828 0.12109 0.023437 0.24219 0.039062 0.36328 0.039062 0.21484 0 0.41797-0.054688 0.61328-0.13281l2.0312 3.1484 1.8203 0.82031-2.9336-4.5469c0.57031-0.55078 0.69531-1.4453 0.25-2.1367l-0.37891-0.58984c0.90625-1.4453 0.96094-3.3398-0.023438-4.8672l-7.8828-12.219c-0.046875-0.070312-0.10547-0.12891-0.15625-0.19531l0.054688-0.035156c1.1406-0.73438 1.4648-2.2578 0.73437-3.3984-0.73437-1.1406-2.2578-1.4648-3.3984-0.73438l-2.2734 1.4648-0.54297-0.84766 0.79297-0.51172c0.31641-0.20312 0.53516-0.51562 0.61328-0.88281 0.078125-0.36719 0.011719-0.74219-0.19531-1.0586l-0.097656-0.14844c-0.20312-0.31641-0.51562-0.53516-0.88281-0.61328-0.36719-0.078125-0.74219-0.011719-1.0586 0.19141l-4.7266 3.0469c-0.31641 0.20312-0.53516 0.51562-0.61328 0.88281-0.078125 0.36719-0.011719 0.74219 0.19141 1.0586zm18.945 20.602c-0.054688 0.097656-0.12891 0.18359-0.23047 0.25l-0.35938 0.23047c-0.097656 0.0625-0.21094 0.09375-0.32031 0.10938-0.082032 0.011719-0.16406 0.011719-0.24219-0.003906-0.19531-0.042969-0.36328-0.16016-0.47266-0.32812l-0.21094-0.32422c0.13281-0.050781 0.26563-0.10156 0.39453-0.16406 0.16406-0.078125 0.32031-0.16016 0.47656-0.26172 0.15625-0.097656 0.29688-0.21094 0.43359-0.32422 0.10938-0.089843 0.21484-0.1875 0.31641-0.28906l0.20312 0.31641c0.16406 0.24609 0.15234 0.55469 0.011719 0.78906zm-0.40625-6.2422c0.69531 1.0781 0.73438 2.3984 0.21875 3.4805-0.070312 0.15234-0.15234 0.30078-0.25 0.44141-0.089844 0.13672-0.19141 0.26953-0.30078 0.39062-0.097657 0.10938-0.19531 0.21094-0.30859 0.30469-0.13672 0.11719-0.27734 0.23047-0.42969 0.33203-0.15625 0.10156-0.31641 0.18359-0.48047 0.25391-0.13281 0.058594-0.26953 0.10938-0.40234 0.15234-0.16016 0.050781-0.32031 0.089843-0.48047 0.11719-0.16797 0.027344-0.33594 0.039063-0.50781 0.042969-1.1992 0.023437-2.3828-0.55469-3.082-1.6367l-0.84375-1.3047 2.4102-1.5547c0.21875-0.14453 0.28125-0.43359 0.14062-0.65234s-0.43359-0.28125-0.65234-0.14063l-2.4102 1.5547-0.60938-0.94531 0.94141-0.60938c0.21875-0.14453 0.28125-0.43359 0.14062-0.65234-0.14453-0.21875-0.43359-0.28125-0.65234-0.14062l-0.94141 0.60938-0.60938-0.94531 2.4102-1.5547c0.21875-0.14453 0.28125-0.43359 0.14062-0.65234s-0.43359-0.28125-0.65234-0.14062l-2.4102 1.5547-0.60938-0.94531 0.94141-0.60938c0.21875-0.14453 0.28125-0.43359 0.14062-0.65234-0.14453-0.21875-0.43359-0.28125-0.65234-0.14062l-0.94141 0.60938-0.60937-0.94531 2.4102-1.5547c0.21875-0.14453 0.28125-0.43359 0.14062-0.65234s-0.43359-0.28125-0.65234-0.14062l-2.4102 1.5547-2.043-3.1641c-0.046875-0.070312-0.078125-0.14844-0.11719-0.22266l5.9844-3.8594c0.054687 0.0625 0.10937 0.125 0.15625 0.19531zm-12.406-14.32 0.79297-0.51172 2.2734-1.4648c0.69922-0.45312 1.6406-0.25 2.0898 0.44922 0.21875 0.33984 0.29297 0.74609 0.20703 1.1406-0.085937 0.39453-0.32031 0.73438-0.66016 0.95312l-0.23438 0.14844-0.89453 0.58203-5.418 3.4961-0.44922 0.28906-0.44531 0.28906-0.23438 0.15234c-0.33984 0.21875-0.74219 0.29688-1.1406 0.20703-0.39453-0.085937-0.73438-0.32031-0.95312-0.66016-0.45312-0.69922-0.25-1.6367 0.45312-2.0898l2.2734-1.4648 0.79297-0.51172zm-2.6016-0.64063 1.543-1 0.54297 0.84766-1.543 1zm-2.8984-0.40625c0.027344-0.12109 0.097656-0.22266 0.19922-0.28906l1.5664-1.0078 1.5977-1.0312 1.5625-1.0078c0.074219-0.050781 0.16016-0.074219 0.25-0.074219 0.03125 0 0.066407 0.003906 0.097657 0.011719 0.12109 0.027344 0.22266 0.097656 0.28906 0.20312l0.097656 0.14844c0.066406 0.10156 0.089844 0.22656 0.0625 0.34766-0.023437 0.12109-0.097656 0.22266-0.19922 0.28906l-0.83203 0.53906-0.85938 0.55469-1.3398 0.86328-0.44141 0.28516-0.41406 0.26562-0.83203 0.53516c-0.21484 0.13672-0.5 0.078125-0.63672-0.13672l-0.097657-0.14844c-0.066406-0.10156-0.089843-0.22656-0.0625-0.34766z" fill="#fff2f2"></path>
</svg>
