<?xml version="1.0" encoding="UTF-8"?>
<svg xmlns="http://www.w3.org/2000/svg" width="100pt" height="100pt" version="1.1" viewBox="0 0 100 100">
  <path d="m5 0h90c2.7617 0 5 2.7617 5 5v90c0 2.7617-2.2383 5-5 5h-90c-2.7617 0-5-2.7617-5-5v-90c0-2.7617 2.2383-5 5-5z" fill="#233642"></path>
  <path d="m61.777 68.953c-0.96094-1.2578-2.8945-2.2305-5.5039-2.8242-0.47656-0.84766-0.93359-1.3984-1.375-1.6445-0.070313-0.30859-0.13672-0.62109-0.19922-0.92188 4.5-1.8789 7.832-6.5 9.0273-12.859 2.3633-0.76562 2.7734-5.4219 0.50781-6.5312-0.007813-0.31641-0.03125-0.61328-0.042969-0.92188 3.0273-5.7461 3.0703-15.238-4.2734-11.535-1.1797-2.0898-2.6758-5.3125-7.7188-4.4062-5.0391 0.90234-11.73 1.4102-11.34-0.79297 0.39453-2.2031 1.2578-3.2109 1.2578-3.2109-3.3047 0.33984-4.5664 2.7617-4.6445 4.3984-0.78906-0.67969-1.1016-2.6016-1.1016-2.6016-1.4961 1.8086-4.5664 7.0625 0 11.523-1.4102 0.55078-1.6172 3.3086-0.54688 6.082-0.03125 0.47656-0.0625 0.95703-0.070313 1.4609-2.2656 1.1133-1.8516 5.7695 0.50781 6.5312 1.2031 6.375 4.5469 11.004 9.0664 12.871-0.0625 0.29688-0.12891 0.60156-0.19531 0.90625-0.44141 0.24609-0.89844 0.79297-1.375 1.6445-2.5391 0.58203-4.4336 1.5156-5.4219 2.7266-1.2852 1.0078-2.9453 3.5078-4.3906 9.4844h13.145v-4.1875c0.37891 0.042969 0.72266 0.03125 1.0547-0.60938 0.21875-0.48047 0.49609-0.96875 0.78906-1.4297-0.054688 0.89844-0.21484 3.3516-0.40625 6.2266h2.9688c-0.1875-2.875-0.35156-5.3242-0.40625-6.2227 0.28906 0.45703 0.56641 0.94531 0.78906 1.4297 0.33594 0.64063 0.67578 0.64844 1.0547 0.60938v4.1875h13.105c-1.3984-5.7852-3-8.3164-4.2695-9.3828zm-24.43-19.445c-2.1367 0.59766-2.582-4.4766-0.32812-4.4023-0.011719-0.44922 0.003907-0.91016 0.015625-1.3438 0.66016-1.8984 1.6211-3.3828 1.5508-5.2109 4 3.3203 12.422-1.0195 14.801-2.2617 0 0 5.0391-2.8828 7.0078 1.4102 1.2305 2.6797 2.0898 4.6992 2.5625 5.8398 0.019531 0.5 0.035157 1.0391 0.023438 1.5625 2.2539-0.070312 1.8086 5-0.32812 4.4023-2.4414 18.301-22.867 18.297-25.305 0zm11.402 20.656c-0.48047 0.65625-1.0859 1.5469-1.5547 2.4727-0.83203-1.3867-1.7578-4.082-2.3359-5.8867 0.17969-0.3125 0.38281-0.61719 0.55859-0.83984 0.17188 0.32031 0.37109 0.61328 0.60938 0.90625 0.47266 0.58594 1.1445 1.2227 2.1914 2.0898 0.30469 0.25 0.58984 0.48438 0.91406 0.74609-0.11328 0.14453-0.24219 0.31641-0.38281 0.50781zm-2.4102-5.2578c0.070312-0.30859 0.13672-0.61328 0.19922-0.91016 2.1875 0.66406 4.7812 0.66016 6.9648-0.011719 0.0625 0.30078 0.13281 0.60938 0.19922 0.92188-0.42188 1.0195-1.0742 1.7578-3.6836 3.8438-2.6133-2.0859-3.2578-2.8242-3.6836-3.8438zm8.5625 2.7148c-0.5 1.5-1.3789 3.9297-2.0547 5.0117-0.59375-1.1602-1.2578-2.0938-1.9375-2.9805 1.168-0.92578 2.5898-2.1484 3.1055-2.8359 0.23438-0.29297 0.43359-0.58594 0.60938-0.90625 0.17578 0.22266 0.37891 0.52734 0.55859 0.83984-0.089844 0.28906-0.18359 0.58203-0.28125 0.875z" fill="#fff2f2"></path>
  <path d="m43.996 44.16c-1.0156 0-1.8398 0.82422-1.8398 1.8359 0 1.0156 0.82422 1.8398 1.8398 1.8398s1.8359-0.82422 1.8359-1.8398-0.82422-1.8359-1.8359-1.8359zm-0.48828 1.7578c-0.22266 0-0.40625-0.18359-0.40625-0.40625 0-0.22266 0.18359-0.40625 0.40625-0.40625 0.22266 0 0.40625 0.18359 0.40625 0.40625 0 0.22266-0.18359 0.40625-0.40625 0.40625z" fill="#fff2f2"></path>
  <path d="m56.004 44.16c-1.0156 0-1.8398 0.82422-1.8398 1.8359 0 1.0156 0.82422 1.8398 1.8398 1.8398s1.8398-0.82422 1.8398-1.8398-0.82422-1.8359-1.8398-1.8359zm-0.48828 1.7578c-0.22266 0-0.40625-0.18359-0.40625-0.40625 0-0.22266 0.18359-0.40625 0.40625-0.40625s0.40625 0.18359 0.40625 0.40625c0 0.22266-0.18359 0.40625-0.40625 0.40625z" fill="#fff2f2"></path>
  <path d="m51.93 51.523-1.2734-4.7734c-0.066406-0.24609-0.32812-0.17969-0.32812 0.082031v4.5977c0 0.12891-0.078125 0.23437-0.16797 0.23437h-1.9219c-0.16016 0-0.23047 0.27734-0.10938 0.41797 0.61719 0.71484 1.4336 0.78125 1.875 0.78125 0.5 0 1.2266-0.13672 1.8984-1.0859 0.046875-0.066406 0.058594-0.16406 0.035156-0.25z" fill="#fff2f2"></path>
  <path d="m52.664 57.672h-5.3281c-0.078126 0-0.14453-0.16797-0.14453-0.375 0-0.21094 0.0625-0.375 0.14453-0.375h5.3281c0.078126 0 0.14453 0.16797 0.14453 0.375 0 0.21094-0.0625 0.375-0.14453 0.375z" fill="#fff2f2"></path>
  <path d="m49.188 59.414c0.015625 0.27734 0.070312 0.48828 0.13672 0.48828h1.3516c0.066407 0 0.12109-0.21094 0.13672-0.48828z" fill="#fff2f2"></path>
</svg>
