<?xml version="1.0" encoding="UTF-8"?>
<svg xmlns="http://www.w3.org/2000/svg" width="100pt" height="100pt" version="1.1" viewBox="0 0 100 100">
  <path d="m5 0h90c2.7617 0 5 2.7617 5 5v90c0 2.7617-2.2383 5-5 5h-90c-2.7617 0-5-2.7617-5-5v-90c0-2.7617 2.2383-5 5-5z" fill="#233642"></path>
  <path d="m34.254 28.352c0-0.26172-0.10156-0.51172-0.28516-0.69531-0.1875-0.18359-0.4375-0.28906-0.69531-0.28906h-0.98438v-2.9531c0-0.25781-0.10547-0.50781-0.28906-0.69531-0.18359-0.18359-0.43359-0.28516-0.69531-0.28516h-7.8711c-0.54688 0-0.98438 0.4375-0.98438 0.98047v2.9531h-0.98438c-0.54297 0-0.98438 0.44141-0.98438 0.98437v9.8398c0 0.26172 0.10156 0.51172 0.28906 0.69531 0.18359 0.18359 0.43359 0.28906 0.69531 0.28906h0.98438v32.473c0 2.7148 2.2031 4.918 4.918 4.918 2.7188 0 4.9219-2.2031 4.9219-4.918v-32.473h0.98438c0.25781 0 0.50781-0.10547 0.69531-0.28906 0.18359-0.18359 0.28516-0.43359 0.28516-0.69531zm-7.8711 8.8555v-7.8711h1.9688v7.8711zm-3.9336-7.8711h1.9648v7.8711h-1.9648zm4.918 45.266c-1.6289 0-2.9531-1.3242-2.9531-2.9531v-5.9062h5.9023v5.9023l0.003906 0.003907c0 1.6289-1.3203 2.9531-2.9531 2.9531zm2.9531-26.566-5.9062-0.003906v-8.8555h5.9023zm1.9688-10.824-1.9688-0.003907v-7.8711h1.9688z" fill="#fff2f2"></path>
  <path d="m79.52 39.176c-0.007812-4.1172-1.6289-8.0664-4.5117-11.004-2.8867-2.9375-6.8086-4.625-10.926-4.707-4.1133-0.078125-8.0977 1.457-11.098 4.2773-2.9961 2.8203-4.7695 6.7031-4.9375 10.82-0.17188 4.1133 1.2773 8.1289 4.0352 11.184 2.7578 3.0586 6.6016 4.918 10.711 5.1719v7.8711l-1.9688 0.003907c-0.54297 0-0.98438 0.4375-0.98438 0.98438v8.8555c0 2.1719 1.7617 3.9336 3.9375 3.9336 2.1719 0 3.9336-1.7617 3.9336-3.9336v-8.8555c0-0.26172-0.10156-0.51172-0.28906-0.69922-0.18359-0.18359-0.43359-0.28516-0.69531-0.28516h-1.9648v-7.875c4-0.25 7.7578-2.0156 10.5-4.9453 2.7422-2.9258 4.2656-6.7852 4.2578-10.797zm-29.52 0c0-5.5703 3.3555-10.594 8.5039-12.727 5.1484-2.1328 11.074-0.95312 15.012 2.9844 3.9414 3.9414 5.1211 9.8672 2.9883 15.016-2.1328 5.1445-7.1562 8.5039-12.727 8.5039-7.6094 0-13.777-6.168-13.777-13.777z" fill="#fff2f2"></path>
  <path d="m39.176 39.176v16.727h-4.9219v1.9688h5.9062c0.26172 0 0.51172-0.10156 0.69531-0.28906 0.18359-0.18359 0.28906-0.43359 0.28906-0.69531v-16.727h4.9219l-0.003906-1.9688h-5.9023c-0.54297 0-0.98438 0.44141-0.98438 0.98438z" fill="#fff2f2"></path>
  <path d="m67.711 31.305c0 5.2461-7.8711 5.2461-7.8711 0 0-5.25 7.8711-5.25 7.8711 0" fill="#fff2f2"></path>
  <path d="m67.711 47.047c0 5.25-7.8711 5.25-7.8711 0 0-5.2461 7.8711-5.2461 7.8711 0" fill="#fff2f2"></path>
  <path d="m59.664 40.16h2.1445v-1.9688h-2.1445c-0.30078-0.83594-0.95703-1.4922-1.793-1.7891v-2.1484h-1.9688v2.1484c-0.83594 0.29688-1.4922 0.95312-1.7891 1.7891h-2.1445v1.9688h2.1445c0.29688 0.83594 0.95312 1.4922 1.7891 1.7891v2.1484h1.9688v-2.1484c0.83594-0.29688 1.4922-0.95312 1.793-1.7891z" fill="#fff2f2"></path>
  <path d="m67.891 38.191h-2.1484v1.9688h2.1484c0.29688 0.83594 0.95312 1.4922 1.7891 1.7891v2.1484h1.9688v-2.1484c0.83594-0.29688 1.4922-0.95312 1.7891-1.7891h2.1445v-1.9688h-2.1445c-0.29688-0.83594-0.95312-1.4922-1.7891-1.7891v-2.1484h-1.9688v2.1484c-0.83594 0.29688-1.4922 0.95312-1.7891 1.7891z" fill="#fff2f2"></path>
</svg>
