<svg xmlns="http://www.w3.org/2000/svg" viewBox="0 0 1024 1024" fill="currentColor" aria-hidden="true"><g transform="translate(0,960) scale(1,-1)"><path d="M1013 531l-485 355q-7 6 -16 6t-16 -6l-485 -355q-9 -6 -10.5 -17t4.5 -20q7 -9 17.5 -10.5t19.5 4.5l470 344l470 -344q3 -2 7 -3.5t8 -1.5q7 0 12.5 3t9.5 8q6 9 4.5 20t-10.5 17v0zM884 482q-11 0 -18.5 -7.5t-7.5 -18.5v-424h-213v231q0 55 -39 94t-94 39t-94 -39 t-39 -94v-231h-213v424q0 11 -7.5 18.5t-18.5 7.5q-12 0 -19.5 -7.5t-7.5 -18.5v-451q0 -11 7.5 -18.5t19.5 -7.5h266q10 0 17.5 7t8.5 17v1.5v0.5v258q0 33 23.5 56.5t56.5 23.5t56.5 -23.5t23.5 -56.5v-258v-0.5v-1.5q1 -10 8.5 -17t17.5 -7h266q12 0 19.5 7.5t7.5 18.5 v451q0 11 -7.5 18.5t-19.5 7.5v0z"/></g></svg>